ffmpeg started on 2016-12-08 at 16:51:28
Report written to "Output/x264/results/ffmpeg/sintelveryslow4500k.log"
Command line:
Tools/ffmpeg/ffmpeg -benchmark -y -i Input/y4m/sintel.y4m -c:v libx264 -preset veryslow -b:v 4500k -an Output/x264/encoded/sintelveryslow4500k.mkv
ffmpeg version N-82227-gdb23fde Copyright (c) 2000-2016 the FFmpeg developers
  built with gcc 5.4.0 (Ubuntu 5.4.0-6ubuntu1~16.04.2) 20160609
  configuration: --prefix=/home/jaroslav/ffmpeg_build --pkg-config-flags=--static --extra-cflags=-I/home/jaroslav/ffmpeg_build/include --extra-ldflags=-L/home/jaroslav/ffmpeg_build/lib --bindir=/home/jaroslav/bin --enable-gpl --enable-libass --enable-libfdk-aac --enable-libfreetype --enable-libmp3lame --enable-libopus --enable-libtheora --enable-libvorbis --enable-libvpx --enable-libx264 --enable-libx265 --enable-nvenc --enable-libmfx --enable-libxvid --enable-libgsm --enable-libopencore-amrnb --enable-version3 --enable-nonfree
  libavutil      55. 35.100 / 55. 35.100
  libavcodec     57. 66.101 / 57. 66.101
  libavformat    57. 57.100 / 57. 57.100
  libavdevice    57.  2.100 / 57.  2.100
  libavfilter     6. 66.100 /  6. 66.100
  libswscale      4.  3.100 /  4.  3.100
  libswresample   2.  4.100 /  2.  4.100
  libpostproc    54.  2.100 / 54.  2.100
Input #0, yuv4mpegpipe, from 'Input/y4m/sintel.y4m':
  Duration: 00:00:20.83, start: 0.000000, bitrate: 2057307 kb/s
    Stream #0:0: Video: rawvideo (I420 / 0x30323449), yuv420p(progressive), 4096x1744, SAR 1:1 DAR 256:109, 24 fps, 24 tbr, 24 tbn, 24 tbc
[libx264 @ 0x335f1c0] using SAR=1/1
[libx264 @ 0x335f1c0] DPB size (16 frames, 446464 mbs) > level limit (6 frames, 184320 mbs)
[libx264 @ 0x335f1c0] using cpu capabilities: MMX2 SSE2Fast SSSE3 SSE4.2 AVX FMA3 AVX2 LZCNT BMI2
[libx264 @ 0x335f1c0] profile High, level 5.2
[libx264 @ 0x335f1c0] 264 - core 148 - H.264/MPEG-4 AVC codec - Copyleft 2003-2016 - http://www.videolan.org/x264.html - options: cabac=1 ref=16 deblock=1:0:0 analyse=0x3:0x133 me=umh subme=10 psy=1 psy_rd=1.00:0.00 mixed_ref=1 me_range=24 chroma_me=1 trellis=2 8x8dct=1 cqm=0 deadzone=21,11 fast_pskip=1 chroma_qp_offset=-2 threads=6 lookahead_threads=1 sliced_threads=0 nr=0 decimate=1 interlaced=0 bluray_compat=0 constrained_intra=0 bframes=8 b_pyramid=2 b_adapt=2 b_bias=0 direct=3 weightb=1 open_gop=0 weightp=2 keyint=250 keyint_min=24 scenecut=40 intra_refresh=0 rc_lookahead=60 rc=abr mbtree=1 bitrate=4500 ratetol=1.0 qcomp=0.60 qpmin=0 qpmax=69 qpstep=4 ip_ratio=1.40 aq=1:1.00
Output #0, matroska, to 'Output/x264/encoded/sintelveryslow4500k.mkv':
  Metadata:
    encoder         : Lavf57.57.100
    Stream #0:0: Video: h264 (libx264) (H264 / 0x34363248), yuv420p, 4096x1744 [SAR 1:1 DAR 256:109], q=-1--1, 4500 kb/s, 24 fps, 1k tbn, 24 tbc
    Metadata:
      encoder         : Lavc57.66.101 libx264
    Side data:
      cpb: bitrate max/min/avg: 0/0/4500000 buffer size: 0 vbv_delay: -1
Stream mapping:
  Stream #0:0 -> #0:0 (rawvideo (native) -> h264 (libx264))
Press [q] to stop, [?] for help
frame=   10 fps=0.0 q=0.0 size=       0kB time=00:00:00.00 bitrate=N/A speed=   0x    frame=   18 fps= 18 q=0.0 size=       0kB time=00:00:00.00 bitrate=N/A speed=   0x    frame=   26 fps= 17 q=0.0 size=       0kB time=00:00:00.00 bitrate=N/A speed=   0x    frame=   34 fps= 17 q=0.0 size=       0kB time=00:00:00.00 bitrate=N/A speed=   0x    frame=   42 fps= 16 q=0.0 size=       0kB time=00:00:00.00 bitrate=N/A speed=   0x    frame=   51 fps= 15 q=0.0 size=       0kB time=00:00:00.00 bitrate=N/A speed=   0x    frame=   59 fps= 15 q=0.0 size=       0kB time=00:00:00.00 bitrate=N/A speed=   0x    frame=   63 fps= 14 q=0.0 size=       0kB time=00:00:00.00 bitrate=N/A speed=   0x    frame=   66 fps=8.4 q=0.0 size=       0kB time=00:00:00.00 bitrate=N/A speed=   0x    frame=   67 fps=7.1 q=0.0 size=       0kB time=00:00:00.00 bitrate=N/A speed=   0x    frame=   72 fps=3.2 q=0.0 size=       0kB time=00:00:00.00 bitrate=N/A speed=   0x    frame=   76 fps=3.1 q=31.0 size=       1kB time=-00:00:00.08 bitrate=N/A speed=N/A    frame=   79 fps=3.1 q=36.0 size=       1kB time=00:00:00.04 bitrate= 136.9kbits/s speed=0.00168x    frame=   81 fps=3.0 q=43.0 size=       1kB time=00:00:00.12 bitrate=  46.7kbits/s speed=0.00473x    frame=   82 fps=3.0 q=46.0 size=       1kB time=00:00:00.16 bitrate=  35.0kbits/s speed=0.00607x    frame=   83 fps=2.9 q=49.0 size=       1kB time=00:00:00.20 bitrate=  28.2kbits/s speed=0.00739x    frame=   86 fps=2.9 q=49.0 size=       1kB time=00:00:00.33 bitrate=  17.6kbits/s speed=0.0111x    frame=   88 fps=2.8 q=49.0 size=       1kB time=00:00:00.41 bitrate=  14.1kbits/s speed=0.0135x    frame=   90 fps=2.7 q=48.0 size=       1kB time=00:00:00.50 bitrate=  11.8kbits/s speed=0.0152x    frame=   91 fps=2.7 q=48.0 size=       1kB time=00:00:00.54 bitrate=  10.8kbits/s speed=0.0162x    frame=   92 fps=2.7 q=48.0 size=       1kB time=00:00:00.58 bitrate=  10.1kbits/s speed=0.0168x    frame=   93 fps=2.5 q=49.0 size=       1kB time=00:00:00.62 bitrate=   9.4kbits/s speed=0.0171x    frame=   95 fps=2.5 q=48.0 size=       1kB time=00:00:00.70 bitrate=   8.3kbits/s speed=0.019x    frame=   96 fps=2.5 q=48.0 size=       1kB time=00:00:00.75 bitrate=   7.8kbits/s speed=0.0198x    frame=   97 fps=2.5 q=48.0 size=       1kB time=00:00:00.79 bitrate=   7.4kbits/s speed=0.0201x    frame=   98 fps=2.4 q=48.0 size=       1kB time=00:00:00.83 bitrate=   7.1kbits/s speed=0.0205x    frame=   99 fps=2.3 q=48.0 size=       1kB time=00:00:00.87 bitrate=   6.7kbits/s speed=0.0206x    frame=  100 fps=2.3 q=48.0 size=       1kB time=00:00:00.91 bitrate=   6.4kbits/s speed=0.0212x    frame=  101 fps=2.3 q=48.0 size=       1kB time=00:00:00.95 bitrate=   6.1kbits/s speed=0.0214x    frame=  102 fps=2.2 q=48.0 size=       1kB time=00:00:01.00 bitrate=   5.9kbits/s speed=0.022x    frame=  104 fps=2.2 q=48.0 size=       1kB time=00:00:01.08 bitrate=   5.4kbits/s speed=0.0234x    frame=  105 fps=2.2 q=48.0 size=       1kB time=00:00:01.12 bitrate=   5.2kbits/s speed=0.0236x    frame=  106 fps=2.2 q=47.0 size=       1kB time=00:00:01.16 bitrate=   5.0kbits/s speed=0.0241x    frame=  107 fps=2.1 q=47.0 size=       1kB time=00:00:01.20 bitrate=   4.9kbits/s speed=0.0242x    frame=  108 fps=2.1 q=47.0 size=       1kB time=00:00:01.25 bitrate=   4.7kbits/s speed=0.0241x    frame=  109 fps=2.1 q=47.0 size=       1kB time=00:00:01.29 bitrate=   4.6kbits/s speed=0.0246x    frame=  110 fps=2.1 q=47.0 size=       1kB time=00:00:01.33 bitrate=   4.4kbits/s speed=0.0251x    frame=  111 fps=2.0 q=47.0 size=       1kB time=00:00:01.37 bitrate=   4.3kbits/s speed=0.0253x    frame=  112 fps=2.0 q=47.0 size=       1kB time=00:00:01.41 bitrate=   4.2kbits/s speed=0.0257x    frame=  113 fps=2.0 q=47.0 size=       1kB time=00:00:01.45 bitrate=   4.0kbits/s speed=0.0257x    frame=  115 fps=2.0 q=47.0 size=       1kB time=00:00:01.54 bitrate=   3.8kbits/s speed=0.0264x    frame=  116 fps=2.0 q=47.0 size=       1kB time=00:00:01.58 bitrate=   3.7kbits/s speed=0.0267x    frame=  117 fps=1.9 q=47.0 size=       1kB time=00:00:01.62 bitrate=   3.6kbits/s speed=0.0271x    frame=  119 fps=1.9 q=46.0 size=       1kB time=00:00:01.70 bitrate=   3.4kbits/s speed=0.028x    frame=  121 fps=1.9 q=46.0 size=       1kB time=00:00:01.79 bitrate=   3.3kbits/s speed=0.0286x    frame=  122 fps=1.9 q=46.0 size=       1kB time=00:00:01.83 bitrate=   3.2kbits/s speed=0.0289x    frame=  123 fps=1.9 q=46.0 size=       1kB time=00:00:01.87 bitrate=   3.1kbits/s speed=0.0292x    frame=  124 fps=1.9 q=46.0 size=       1kB time=00:00:01.91 bitrate=   3.1kbits/s speed=0.0294x    frame=  125 fps=1.9 q=46.0 size=       1kB time=00:00:01.95 bitrate=   3.0kbits/s speed=0.0298x    frame=  126 fps=1.9 q=46.0 size=       1kB time=00:00:02.00 bitrate=   2.9kbits/s speed=0.03x    frame=  127 fps=1.9 q=46.0 size=       1kB time=00:00:02.04 bitrate=   2.9kbits/s speed=0.0301x    frame=  128 fps=1.9 q=46.0 size=       1kB time=00:00:02.08 bitrate=   2.8kbits/s speed=0.0302x    frame=  129 fps=1.8 q=46.0 size=       1kB time=00:00:02.12 bitrate=   2.8kbits/s speed=0.0302x    frame=  130 fps=1.8 q=46.0 size=       1kB time=00:00:02.16 bitrate=   2.7kbits/s speed=0.0302x    frame=  131 fps=1.8 q=46.0 size=       1kB time=00:00:02.20 bitrate=   2.7kbits/s speed=0.0304x    frame=  132 fps=1.8 q=46.0 size=       1kB time=00:00:02.25 bitrate=   2.6kbits/s speed=0.0304x    frame=  133 fps=1.8 q=46.0 size=       1kB time=00:00:02.29 bitrate=   2.6kbits/s speed=0.0306x    frame=  134 fps=1.8 q=46.0 size=       1kB time=00:00:02.33 bitrate=   2.5kbits/s speed=0.0306x    frame=  135 fps=1.8 q=46.0 size=       1kB time=00:00:02.37 bitrate=   2.5kbits/s speed=0.0308x    frame=  136 fps=1.7 q=46.0 size=       1kB time=00:00:02.41 bitrate=   2.4kbits/s speed=0.0308x    frame=  137 fps=1.7 q=46.0 size=       1kB time=00:00:02.45 bitrate=   2.4kbits/s speed=0.0309x    frame=  138 fps=1.7 q=46.0 size=       1kB time=00:00:02.50 bitrate=   2.4kbits/s speed=0.031x    frame=  139 fps=1.7 q=46.0 size=       1kB time=00:00:02.54 bitrate=   2.3kbits/s speed=0.0312x    frame=  140 fps=1.7 q=46.0 size=       1kB time=00:00:02.58 bitrate=   2.3kbits/s speed=0.0313x    frame=  141 fps=1.7 q=46.0 size=       1kB time=00:00:02.62 bitrate=   2.2kbits/s speed=0.0315x    frame=  142 fps=1.6 q=46.0 size=       1kB time=00:00:02.66 bitrate=   2.2kbits/s speed=0.0307x    frame=  143 fps=1.6 q=46.0 size=       1kB time=00:00:02.70 bitrate=   2.2kbits/s speed=0.031x    frame=  145 fps=1.6 q=46.0 size=       1kB time=00:00:02.79 bitrate=   2.1kbits/s speed=0.0315x    frame=  146 fps=1.6 q=46.0 size=       1kB time=00:00:02.83 bitrate=   2.1kbits/s speed=0.0316x    frame=  147 fps=1.6 q=46.0 size=       1kB time=00:00:02.87 bitrate=   2.0kbits/s speed=0.0317x    frame=  148 fps=1.6 q=45.0 size=       1kB time=00:00:02.91 bitrate=   2.0kbits/s speed=0.0312x    frame=  149 fps=1.6 q=45.0 size=       1kB time=00:00:02.95 bitrate=   2.0kbits/s speed=0.0313x    frame=  150 fps=1.6 q=45.0 size=       1kB time=00:00:03.00 bitrate=   2.0kbits/s speed=0.0314x    frame=  151 fps=1.6 q=45.0 size=       1kB time=00:00:03.04 bitrate=   1.9kbits/s speed=0.0316x    frame=  152 fps=1.6 q=45.0 size=       1kB time=00:00:03.08 bitrate=   1.9kbits/s speed=0.0316x    frame=  153 fps=1.6 q=45.0 size=       1kB time=00:00:03.12 bitrate=   1.9kbits/s speed=0.0317x    frame=  154 fps=1.5 q=45.0 size=       1kB time=00:00:03.16 bitrate=   1.9kbits/s speed=0.0314x    frame=  155 fps=1.5 q=45.0 size=       1kB time=00:00:03.20 bitrate=   1.8kbits/s speed=0.0315x    frame=  156 fps=1.5 q=45.0 size=       1kB time=00:00:03.25 bitrate=   1.8kbits/s speed=0.0317x    frame=  157 fps=1.5 q=45.0 size=       1kB time=00:00:03.29 bitrate=   1.8kbits/s speed=0.0316x    frame=  158 fps=1.5 q=45.0 size=       1kB time=00:00:03.33 bitrate=   1.8kbits/s speed=0.0317x    frame=  159 fps=1.5 q=45.0 size=       1kB time=00:00:03.37 bitrate=   1.7kbits/s speed=0.0319x    frame=  160 fps=1.5 q=45.0 size=       1kB time=00:00:03.41 bitrate=   1.7kbits/s speed=0.0316x    frame=  161 fps=1.5 q=45.0 size=       1kB time=00:00:03.45 bitrate=   1.7kbits/s speed=0.0317x    frame=  162 fps=1.5 q=45.0 size=       1kB time=00:00:03.50 bitrate=   1.7kbits/s speed=0.0317x    frame=  163 fps=1.5 q=45.0 size=       1kB time=00:00:03.54 bitrate=   1.7kbits/s speed=0.0318x    frame=  164 fps=1.5 q=45.0 size=       1kB time=00:00:03.58 bitrate=   1.6kbits/s speed=0.0319x    frame=  165 fps=1.5 q=45.0 size=       1kB time=00:00:03.62 bitrate=   1.6kbits/s speed=0.032x    frame=  166 fps=1.4 q=45.0 size=       1kB time=00:00:03.66 bitrate=   1.6kbits/s speed=0.0319x    frame=  167 fps=1.4 q=45.0 size=       1kB time=00:00:03.70 bitrate=   1.6kbits/s speed=0.032x    frame=  168 fps=1.4 q=45.0 size=       1kB time=00:00:03.75 bitrate=   1.6kbits/s speed=0.032x    frame=  169 fps=1.4 q=45.0 size=       1kB time=00:00:03.79 bitrate=   1.6kbits/s speed=0.0322x    frame=  170 fps=1.4 q=45.0 size=       1kB time=00:00:03.83 bitrate=   1.5kbits/s speed=0.0324x    frame=  171 fps=1.4 q=45.0 size=       1kB time=00:00:03.87 bitrate=   1.5kbits/s speed=0.0326x    frame=  172 fps=1.4 q=45.0 size=       1kB time=00:00:03.91 bitrate=   1.5kbits/s speed=0.0321x    frame=  173 fps=1.4 q=45.0 size=       1kB time=00:00:03.95 bitrate=   1.5kbits/s speed=0.0323x    frame=  175 fps=1.4 q=45.0 size=       1kB time=00:00:04.04 bitrate=   1.5kbits/s speed=0.0328x    frame=  176 fps=1.4 q=45.0 size=       1kB time=00:00:04.08 bitrate=   1.4kbits/s speed=0.0329x    frame=  177 fps=1.4 q=45.0 size=       1kB time=00:00:04.12 bitrate=   1.4kbits/s speed=0.0331x    frame=  178 fps=1.4 q=45.0 size=       1kB time=00:00:04.16 bitrate=   1.4kbits/s speed=0.0325x    frame=  180 fps=1.4 q=44.0 size=       1kB time=00:00:04.25 bitrate=   1.4kbits/s speed=0.0329x    frame=  182 fps=1.4 q=44.0 size=       1kB time=00:00:04.33 bitrate=   1.4kbits/s speed=0.0332x    frame=  183 fps=1.4 q=44.0 size=       1kB time=00:00:04.37 bitrate=   1.3kbits/s speed=0.0334x    frame=  184 fps=1.4 q=44.0 size=       1kB time=00:00:04.41 bitrate=   1.3kbits/s speed=0.0333x    frame=  186 fps=1.4 q=44.0 size=       1kB time=00:00:04.50 bitrate=   1.3kbits/s speed=0.0336x    frame=  187 fps=1.4 q=44.0 size=       1kB time=00:00:04.54 bitrate=   1.3kbits/s speed=0.0337x    frame=  188 fps=1.4 q=44.0 size=       1kB time=00:00:04.58 bitrate=   1.3kbits/s speed=0.0337x    frame=  190 fps=1.4 q=44.0 size=       1kB time=00:00:04.66 bitrate=   1.3kbits/s speed=0.0341x    frame=  191 fps=1.4 q=44.0 size=       1kB time=00:00:04.70 bitrate=   1.3kbits/s speed=0.0342x    frame=  192 fps=1.4 q=44.0 size=       1kB time=00:00:04.75 bitrate=   1.2kbits/s speed=0.0335x    frame=  193 fps=1.4 q=44.0 size=       1kB time=00:00:04.79 bitrate=   1.2kbits/s speed=0.0337x    frame=  194 fps=1.4 q=44.0 size=       1kB time=00:00:04.83 bitrate=   1.2kbits/s speed=0.0338x    frame=  196 fps=1.4 q=44.0 size=    2848kB time=00:00:04.91 bitrate=4744.3kbits/s speed=0.0342x    frame=  197 fps=1.4 q=44.0 size=    2848kB time=00:00:04.95 bitrate=4705.1kbits/s speed=0.0343x    frame=  198 fps=1.4 q=44.0 size=    2848kB time=00:00:05.00 bitrate=4665.6kbits/s speed=0.0343x    frame=  199 fps=1.4 q=44.0 size=    2848kB time=00:00:05.04 bitrate=4626.7kbits/s speed=0.0343x    frame=  200 fps=1.3 q=44.0 size=    2848kB time=00:00:05.08 bitrate=4589.4kbits/s speed=0.0343x    frame=  201 fps=1.3 q=44.0 size=    2848kB time=00:00:05.12 bitrate=4551.8kbits/s speed=0.0343x    frame=  202 fps=1.3 q=44.0 size=    2848kB time=00:00:05.16 bitrate=4514.8kbits/s speed=0.0344x    frame=  203 fps=1.3 q=44.0 size=    2848kB time=00:00:05.20 bitrate=4479.3kbits/s speed=0.0344x    frame=  204 fps=1.3 q=44.0 size=    2848kB time=00:00:05.25 bitrate=4443.5kbits/s speed=0.0346x    frame=  205 fps=1.3 q=44.0 size=    2848kB time=00:00:05.29 bitrate=4408.2kbits/s speed=0.0346x    frame=  206 fps=1.3 q=44.0 size=    2848kB time=00:00:05.33 bitrate=4374.3kbits/s speed=0.0347x    frame=  207 fps=1.3 q=44.0 size=    2848kB time=00:00:05.37 bitrate=4340.1kbits/s speed=0.0347x    frame=  208 fps=1.3 q=44.0 size=    2848kB time=00:00:05.41 bitrate=4306.5kbits/s speed=0.0347x    frame=  209 fps=1.3 q=44.0 size=    2848kB time=00:00:05.45 bitrate=4274.2kbits/s speed=0.0348x    frame=  211 fps=1.3 q=44.0 size=    2848kB time=00:00:05.54 bitrate=4209.4kbits/s speed=0.035x    frame=  212 fps=1.3 q=44.0 size=    2848kB time=00:00:05.58 bitrate=4178.5kbits/s speed=0.0352x    frame=  213 fps=1.3 q=44.0 size=    2848kB time=00:00:05.62 bitrate=4147.3kbits/s speed=0.0353x    frame=  215 fps=1.3 q=44.0 size=    2848kB time=00:00:05.70 bitrate=4087.0kbits/s speed=0.0354x    frame=  217 fps=1.3 q=44.0 size=    2848kB time=00:00:05.79 bitrate=4027.7kbits/s speed=0.0358x    frame=  218 fps=1.3 q=44.0 size=    2848kB time=00:00:05.83 bitrate=3999.4kbits/s speed=0.0358x    frame=  219 fps=1.3 q=44.0 size=    2848kB time=00:00:05.87 bitrate=3970.8kbits/s speed=0.0358x    frame=  220 fps=1.3 q=44.0 size=    2848kB time=00:00:05.91 bitrate=3942.6kbits/s speed=0.0359x    frame=  221 fps=1.3 q=44.0 size=    2848kB time=00:00:05.95 bitrate=3915.5kbits/s speed=0.0359x    frame=  222 fps=1.3 q=44.0 size=    2848kB time=00:00:06.00 bitrate=3888.1kbits/s speed=0.036x    frame=  223 fps=1.3 q=44.0 size=    2848kB time=00:00:06.04 bitrate=3861.1kbits/s speed=0.0361x    frame=  224 fps=1.3 q=44.0 size=    2848kB time=00:00:06.08 bitrate=3835.1kbits/s speed=0.0361x    frame=  225 fps=1.3 q=44.0 size=    2848kB time=00:00:06.12 bitrate=3808.8kbits/s speed=0.0363x    frame=  226 fps=1.3 q=44.0 size=    2848kB time=00:00:06.16 bitrate=3782.8kbits/s speed=0.0363x    frame=  227 fps=1.3 q=44.0 size=    2848kB time=00:00:06.20 bitrate=3757.9kbits/s speed=0.0362x    frame=  229 fps=1.3 q=44.0 size=    2848kB time=00:00:06.29 bitrate=3707.7kbits/s speed=0.0365x    frame=  230 fps=1.3 q=44.0 size=    2848kB time=00:00:06.33 bitrate=3683.7kbits/s speed=0.0366x    frame=  233 fps=1.3 q=44.0 size=    2848kB time=00:00:06.45 bitrate=3612.4kbits/s speed=0.0363x    frame=  235 fps=1.3 q=44.0 size=    2848kB time=00:00:06.54 bitrate=3566.0kbits/s speed=0.0366x    frame=  236 fps=1.3 q=44.0 size=    2848kB time=00:00:06.58 bitrate=3543.8kbits/s speed=0.0366x    frame=  237 fps=1.3 q=44.0 size=    2848kB time=00:00:06.62 bitrate=3521.4kbits/s speed=0.0367x    frame=  238 fps=1.3 q=44.0 size=    2848kB time=00:00:06.66 bitrate=3499.2kbits/s speed=0.0368x    frame=  239 fps=1.3 q=44.0 size=    2848kB time=00:00:06.70 bitrate=3477.8kbits/s speed=0.0366x    frame=  240 fps=1.3 q=44.0 size=    2848kB time=00:00:06.75 bitrate=3456.2kbits/s speed=0.0366x    frame=  241 fps=1.3 q=44.0 size=    2848kB time=00:00:06.79 bitrate=3434.8kbits/s speed=0.0366x    frame=  242 fps=1.3 q=44.0 size=    2848kB time=00:00:06.83 bitrate=3414.2kbits/s speed=0.0367x    frame=  243 fps=1.3 q=44.0 size=    2848kB time=00:00:06.87 bitrate=3393.3kbits/s speed=0.0368x    frame=  245 fps=1.3 q=44.0 size=    2848kB time=00:00:06.95 bitrate=3352.9kbits/s speed=0.0369x    frame=  246 fps=1.3 q=44.0 size=    2848kB time=00:00:07.00 bitrate=3332.8kbits/s speed=0.0368x    frame=  247 fps=1.3 q=44.0 size=    2848kB time=00:00:07.04 bitrate=3312.9kbits/s speed=0.0367x    frame=  249 fps=1.3 q=44.0 size=    2848kB time=00:00:07.12 bitrate=3274.3kbits/s speed=0.037x    frame=  250 fps=1.3 q=44.0 size=    2848kB time=00:00:07.16 bitrate=3255.1kbits/s speed=0.037x    frame=  251 fps=1.3 q=44.0 size=    2848kB time=00:00:07.20 bitrate=3236.6kbits/s speed=0.037x    frame=  252 fps=1.3 q=44.0 size=    2848kB time=00:00:07.25 bitrate=3217.8kbits/s speed=0.037x    frame=  253 fps=1.3 q=44.0 size=    2848kB time=00:00:07.29 bitrate=3199.3kbits/s speed=0.0368x    frame=  254 fps=1.3 q=44.0 size=    2848kB time=00:00:07.33 bitrate=3181.4kbits/s speed=0.0369x    frame=  255 fps=1.3 q=44.0 size=    2848kB time=00:00:07.37 bitrate=3163.3kbits/s speed=0.037x    frame=  256 fps=1.3 q=44.0 size=    2848kB time=00:00:07.41 bitrate=3145.4kbits/s speed=0.037x    frame=  257 fps=1.3 q=44.0 size=    2848kB time=00:00:07.45 bitrate=3128.1kbits/s speed=0.037x    frame=  258 fps=1.3 q=44.0 size=    2848kB time=00:00:07.50 bitrate=3110.6kbits/s speed=0.0371x    frame=  259 fps=1.3 q=44.0 size=    2848kB time=00:00:07.54 bitrate=3093.3kbits/s speed=0.0371x    frame=  260 fps=1.3 q=44.0 size=    2848kB time=00:00:07.58 bitrate=3076.6kbits/s speed=0.0368x    frame=  261 fps=1.3 q=43.0 size=    2848kB time=00:00:07.62 bitrate=3059.6kbits/s speed=0.0369x    frame=  264 fps=1.3 q=43.0 size=    2848kB time=00:00:07.75 bitrate=3010.3kbits/s speed=0.0374x    frame=  266 fps=1.3 q=43.0 size=    2848kB time=00:00:07.83 bitrate=2978.4kbits/s speed=0.0376x    frame=  267 fps=1.3 q=43.0 size=    2848kB time=00:00:07.87 bitrate=2962.5kbits/s speed=0.0372x    frame=  269 fps=1.3 q=43.0 size=    2848kB time=00:00:07.95 bitrate=2931.6kbits/s speed=0.0375x    frame=  271 fps=1.3 q=43.0 size=    2848kB time=00:00:08.04 bitrate=2901.0kbits/s speed=0.0377x    frame=  272 fps=1.3 q=43.0 size=    2848kB time=00:00:08.08 bitrate=2886.3kbits/s speed=0.0378x    frame=  273 fps=1.3 q=43.0 size=    2848kB time=00:00:08.12 bitrate=2871.4kbits/s speed=0.0377x    frame=  274 fps=1.3 q=43.0 size=    2848kB time=00:00:08.16 bitrate=2856.6kbits/s speed=0.0376x    frame=  275 fps=1.3 q=43.0 size=    2848kB time=00:00:08.20 bitrate=2842.3kbits/s speed=0.0376x    frame=  277 fps=1.3 q=43.0 size=    2848kB time=00:00:08.29 bitrate=2813.5kbits/s speed=0.0378x    frame=  278 fps=1.3 q=43.0 size=    2848kB time=00:00:08.33 bitrate=2799.7kbits/s speed=0.0378x    frame=  280 fps=1.3 q=43.0 size=    2848kB time=00:00:08.41 bitrate=2771.8kbits/s speed=0.038x    frame=  281 fps=1.3 q=43.0 size=    2848kB time=00:00:08.45 bitrate=2758.3kbits/s speed=0.038x    frame=  282 fps=1.3 q=43.0 size=    2848kB time=00:00:08.50 bitrate=2744.7kbits/s speed=0.038x    frame=  283 fps=1.3 q=43.0 size=    2848kB time=00:00:08.54 bitrate=2731.2kbits/s speed=0.0381x    frame=  284 fps=1.3 q=43.0 size=    2848kB time=00:00:08.58 bitrate=2718.2kbits/s speed=0.0381x    frame=  286 fps=1.3 q=43.0 size=    2848kB time=00:00:08.66 bitrate=2691.8kbits/s speed=0.0383x    frame=  288 fps=1.3 q=43.0 size=    2848kB time=00:00:08.75 bitrate=2666.3kbits/s speed=0.0385x    frame=  289 fps=1.3 q=43.0 size=    2848kB time=00:00:08.79 bitrate=2653.5kbits/s speed=0.0384x    frame=  290 fps=1.3 q=43.0 size=    2848kB time=00:00:08.83 bitrate=2641.2kbits/s speed=0.0385x    frame=  292 fps=1.3 q=43.0 size=    2848kB time=00:00:08.91 bitrate=2616.3kbits/s speed=0.0386x    frame=  294 fps=1.3 q=43.0 size=    2848kB time=00:00:09.00 bitrate=2592.2kbits/s speed=0.0388x    frame=  295 fps=1.3 q=43.0 size=    2848kB time=00:00:09.04 bitrate=2580.2kbits/s speed=0.0387x    frame=  296 fps=1.3 q=43.0 size=    2848kB time=00:00:09.08 bitrate=2568.5kbits/s speed=0.0388x    frame=  298 fps=1.3 q=43.0 size=    2848kB time=00:00:09.16 bitrate=2545.0kbits/s speed=0.0389x    frame=  299 fps=1.3 q=43.0 size=    2848kB time=00:00:09.20 bitrate=2533.7kbits/s speed=0.0389x    frame=  301 fps=1.3 q=43.0 size=    2848kB time=00:00:09.29 bitrate=2510.8kbits/s speed=0.0392x    frame=  302 fps=1.3 q=42.0 size=    2848kB time=00:00:09.33 bitrate=2499.7kbits/s speed=0.039x    frame=  303 fps=1.3 q=42.0 size=    2848kB time=00:00:09.37 bitrate=2488.5kbits/s speed=0.039x    frame=  306 fps=1.3 q=42.0 size=    2848kB time=00:00:09.50 bitrate=2455.8kbits/s speed=0.0394x    frame=  309 fps=1.3 q=42.0 size=    2848kB time=00:00:09.62 bitrate=2423.9kbits/s speed=0.0394x    frame=  311 fps=1.3 q=42.0 size=    2848kB time=00:00:09.70 bitrate=2403.2kbits/s speed=0.0396x    frame=  312 fps=1.3 q=42.0 size=    2848kB time=00:00:09.75 bitrate=2392.8kbits/s speed=0.0396x    frame=  313 fps=1.3 q=42.0 size=    2848kB time=00:00:09.79 bitrate=2382.6kbits/s speed=0.0396x    frame=  316 fps=1.3 q=42.0 size=    2848kB time=00:00:09.91 bitrate=2352.6kbits/s speed=0.04x    frame=  317 fps=1.3 q=42.0 size=    2848kB time=00:00:09.95 bitrate=2342.9kbits/s speed=0.0401x    frame=  318 fps=1.3 q=42.0 size=    5199kB time=00:00:10.00 bitrate=4258.6kbits/s speed=0.0401x    frame=  320 fps=1.3 q=42.0 size=    5199kB time=00:00:10.08 bitrate=4223.5kbits/s speed=0.0403x    frame=  321 fps=1.3 q=39.0 size=    5199kB time=00:00:10.12 bitrate=4206.0kbits/s speed=0.0402x    frame=  324 fps=1.3 q=42.0 size=    5199kB time=00:00:10.25 bitrate=4154.7kbits/s speed=0.0404x    frame=  326 fps=1.3 q=42.0 size=    5329kB time=00:00:10.33 bitrate=4224.7kbits/s speed=0.0406x    frame=  332 fps=1.3 q=42.0 size=    5329kB time=00:00:10.58 bitrate=4124.9kbits/s speed=0.0415x    frame=  336 fps=1.3 q=39.0 size=    5329kB time=00:00:10.75 bitrate=4060.8kbits/s speed=0.042x    frame=  338 fps=1.3 q=42.0 size=    5329kB time=00:00:10.83 bitrate=4029.7kbits/s speed=0.0421x    frame=  340 fps=1.3 q=41.0 size=    5329kB time=00:00:10.91 bitrate=3998.7kbits/s speed=0.0423x    frame=  343 fps=1.3 q=41.0 size=    5329kB time=00:00:11.04 bitrate=3953.4kbits/s speed=0.0427x    frame=  344 fps=1.3 q=41.0 size=    5329kB time=00:00:11.08 bitrate=3938.8kbits/s speed=0.0427x    frame=  345 fps=1.3 q=41.0 size=    5329kB time=00:00:11.12 bitrate=3923.9kbits/s speed=0.0428x    frame=  346 fps=1.3 q=41.0 size=    5329kB time=00:00:11.16 bitrate=3909.2kbits/s speed=0.0427x    frame=  349 fps=1.3 q=41.0 size=    5329kB time=00:00:11.29 bitrate=3865.9kbits/s speed=0.043x    frame=  350 fps=1.3 q=41.0 size=    5329kB time=00:00:11.33 bitrate=3851.9kbits/s speed=0.043x    frame=  351 fps=1.3 q=41.0 size=    5329kB time=00:00:11.37 bitrate=3837.7kbits/s speed=0.0431x    frame=  353 fps=1.3 q=41.0 size=    5329kB time=00:00:11.45 bitrate=3809.9kbits/s speed=0.0431x    frame=  354 fps=1.3 q=41.0 size=    5329kB time=00:00:11.50 bitrate=3796.0kbits/s speed=0.0432x    frame=  357 fps=1.3 q=41.0 size=    5329kB time=00:00:11.62 bitrate=3755.2kbits/s speed=0.0435x    frame=  358 fps=1.3 q=41.0 size=    5329kB time=00:00:11.66 bitrate=3741.7kbits/s speed=0.0435x    frame=  360 fps=1.3 q=41.0 size=    5329kB time=00:00:11.75 bitrate=3715.2kbits/s speed=0.0434x    frame=  362 fps=1.3 q=41.0 size=    5329kB time=00:00:11.83 bitrate=3689.2kbits/s speed=0.0436x    frame=  365 fps=1.3 q=41.0 size=    5329kB time=00:00:11.95 bitrate=3650.6kbits/s speed=0.044x    frame=  366 fps=1.3 q=41.0 size=    5329kB time=00:00:12.00 bitrate=3637.8kbits/s speed=0.044x    frame=  368 fps=1.3 q=41.0 size=    5329kB time=00:00:12.08 bitrate=3612.9kbits/s speed=0.044x    frame=  369 fps=1.3 q=41.0 size=    5329kB time=00:00:12.12 bitrate=3600.3kbits/s speed=0.044x    frame=  372 fps=1.3 q=41.0 size=    5329kB time=00:00:12.25 bitrate=3563.6kbits/s speed=0.0444x    frame=  373 fps=1.3 q=41.0 size=    5329kB time=00:00:12.29 bitrate=3551.4kbits/s speed=0.0444x    frame=  375 fps=1.4 q=40.0 size=    5329kB time=00:00:12.37 bitrate=3527.6kbits/s speed=0.0446x    frame=  376 fps=1.3 q=40.0 size=    5329kB time=00:00:12.41 bitrate=3515.7kbits/s speed=0.0445x    frame=  378 fps=1.4 q=40.0 size=    5329kB time=00:00:12.50 bitrate=3492.3kbits/s speed=0.0447x    frame=  382 fps=1.4 q=40.0 size=    5329kB time=00:00:12.66 bitrate=3446.3kbits/s speed=0.045x    frame=  385 fps=1.4 q=40.0 size=    5329kB time=00:00:12.79 bitrate=3412.6kbits/s speed=0.0453x    frame=  388 fps=1.4 q=40.0 size=    5329kB time=00:00:12.91 bitrate=3379.6kbits/s speed=0.0454x    frame=  393 fps=1.4 q=39.0 size=    5329kB time=00:00:13.12 bitrate=3326.1kbits/s speed=0.0459x    frame=  394 fps=1.4 q=39.0 size=    5329kB time=00:00:13.16 bitrate=3315.4kbits/s speed=0.0457x    frame=  397 fps=1.4 q=39.0 size=    5329kB time=00:00:13.29 bitrate=3284.3kbits/s speed=0.046x    frame=  400 fps=1.4 q=39.0 size=    5329kB time=00:00:13.41 bitrate=3253.7kbits/s speed=0.0461x    frame=  405 fps=1.4 q=39.0 size=    5329kB time=00:00:13.62 bitrate=3204.0kbits/s speed=0.0467x    frame=  406 fps=1.4 q=39.0 size=    5329kB time=00:00:13.66 bitrate=3194.2kbits/s speed=0.0467x    frame=  408 fps=1.4 q=39.0 size=    5329kB time=00:00:13.75 bitrate=3174.9kbits/s speed=0.0467x    frame=  409 fps=1.4 q=39.0 size=    5329kB time=00:00:13.79 bitrate=3165.2kbits/s speed=0.0467x    frame=  414 fps=1.4 q=39.0 size=    5329kB time=00:00:14.00 bitrate=3118.2kbits/s speed=0.047x    frame=  418 fps=1.4 q=38.0 size=    5329kB time=00:00:14.16 bitrate=3081.4kbits/s speed=0.0475x    frame=  420 fps=1.4 q=38.0 size=    5329kB time=00:00:14.25 bitrate=3063.5kbits/s speed=0.0474x    frame=  424 fps=1.4 q=38.0 size=    5329kB time=00:00:14.41 bitrate=3028.0kbits/s speed=0.0479x    frame=  425 fps=1.4 q=38.0 size=    5329kB time=00:00:14.45 bitrate=3019.4kbits/s speed=0.0479x    frame=  426 fps=1.4 q=38.0 size=    5329kB time=00:00:14.50 bitrate=3010.7kbits/s speed=0.0478x    frame=  429 fps=1.4 q=38.0 size=    5329kB time=00:00:14.62 bitrate=2984.9kbits/s speed=0.0481x    frame=  431 fps=1.4 q=38.0 size=    5329kB time=00:00:14.70 bitrate=2968.1kbits/s speed=0.0482x    frame=  432 fps=1.4 q=38.0 size=    5329kB time=00:00:14.75 bitrate=2959.6kbits/s speed=0.0481x    frame=  435 fps=1.4 q=37.0 size=    5329kB time=00:00:14.87 bitrate=2934.8kbits/s speed=0.0484x    frame=  437 fps=1.4 q=37.0 size=    5329kB time=00:00:14.95 bitrate=2918.5kbits/s speed=0.0486x    frame=  439 fps=1.4 q=37.0 size=    5329kB time=00:00:15.04 bitrate=2902.2kbits/s speed=0.0481x    frame=  441 fps=1.4 q=37.0 size=    5329kB time=00:00:15.12 bitrate=2886.3kbits/s speed=0.0482x    frame=  443 fps=1.4 q=37.0 size=    5329kB time=00:00:15.20 bitrate=2870.5kbits/s speed=0.0484x    frame=  445 fps=1.4 q=37.0 size=    6958kB time=00:00:15.29 bitrate=3727.4kbits/s speed=0.0485x    frame=  446 fps=1.4 q=37.0 size=    6958kB time=00:00:15.33 bitrate=3717.4kbits/s speed=0.0483x    frame=  448 fps=1.4 q=37.0 size=    6958kB time=00:00:15.41 bitrate=3697.2kbits/s speed=0.0484x    frame=  449 fps=1.4 q=37.0 size=    6958kB time=00:00:15.45 bitrate=3687.3kbits/s speed=0.0485x    frame=  451 fps=1.4 q=37.0 size=    6958kB time=00:00:15.54 bitrate=3667.4kbits/s speed=0.0486x    frame=  452 fps=1.4 q=37.0 size=    6958kB time=00:00:15.58 bitrate=3657.8kbits/s speed=0.0484x    frame=  453 fps=1.4 q=37.0 size=    6958kB time=00:00:15.62 bitrate=3647.9kbits/s speed=0.0485x    frame=  455 fps=1.4 q=37.0 size=    6958kB time=00:00:15.70 bitrate=3628.7kbits/s speed=0.0485x    frame=  456 fps=1.4 q=37.0 size=    6958kB time=00:00:15.75 bitrate=3619.0kbits/s speed=0.0486x    frame=  458 fps=1.4 q=37.0 size=    6958kB time=00:00:15.83 bitrate=3600.0kbits/s speed=0.0487x    frame=  459 fps=1.4 q=37.0 size=    6958kB time=00:00:15.87 bitrate=3590.5kbits/s speed=0.0486x    frame=  461 fps=1.4 q=37.0 size=    6958kB time=00:00:15.95 bitrate=3571.8kbits/s speed=0.0487x    frame=  464 fps=1.4 q=37.0 size=    6958kB time=00:00:16.08 bitrate=3544.1kbits/s speed=0.0487x    frame=  465 fps=1.4 q=37.0 size=    6958kB time=00:00:16.12 bitrate=3534.8kbits/s speed=0.0487x    frame=  466 fps=1.4 q=37.0 size=    6958kB time=00:00:16.16 bitrate=3525.6kbits/s speed=0.0488x    frame=  468 fps=1.4 q=37.0 size=    6958kB time=00:00:16.25 bitrate=3507.6kbits/s speed=0.0487x    frame=  470 fps=1.4 q=37.0 size=    6958kB time=00:00:16.33 bitrate=3489.8kbits/s speed=0.0489x    frame=  471 fps=1.4 q=37.0 size=    6958kB time=00:00:16.37 bitrate=3480.9kbits/s speed=0.0487x    frame=  473 fps=1.4 q=37.0 size=    6958kB time=00:00:16.45 bitrate=3463.3kbits/s speed=0.0488x    frame=  476 fps=1.4 q=37.0 size=    6958kB time=00:00:16.58 bitrate=3437.2kbits/s speed=0.0488x    frame=  477 fps=1.4 q=37.0 size=    6958kB time=00:00:16.62 bitrate=3428.5kbits/s speed=0.0488x    frame=  481 fps=1.4 q=37.0 size=    6958kB time=00:00:16.79 bitrate=3394.4kbits/s speed=0.0492x    frame=  482 fps=1.4 q=37.0 size=    6958kB time=00:00:16.83 bitrate=3386.2kbits/s speed=0.0488x    frame=  484 fps=1.4 q=37.0 size=    6958kB time=00:00:16.91 bitrate=3369.4kbits/s speed=0.049x    frame=  486 fps=1.4 q=37.0 size=    6958kB time=00:00:17.00 bitrate=3352.9kbits/s speed=0.0491x    frame=  488 fps=1.4 q=37.0 size=    6958kB time=00:00:17.08 bitrate=3336.6kbits/s speed=0.0491x    frame=  490 fps=1.4 q=37.0 size=    6958kB time=00:00:17.16 bitrate=3320.3kbits/s speed=0.0491x    frame=  494 fps=1.4 q=37.0 size=    6958kB time=00:00:17.33 bitrate=3288.5kbits/s speed=0.0488x    frame=  497 fps=1.4 q=37.0 size=    6958kB time=00:00:17.45 bitrate=3264.9kbits/s speed=0.049x    frame=  499 fps=1.4 q=37.0 size=    6958kB time=00:00:17.54 bitrate=3249.3kbits/s speed=0.0492x    frame=  500 fps=1.4 q=37.0 size=    6958kB time=00:00:17.58 bitrate=3241.7kbits/s speed=0.0491x    frame=  500 fps=1.3 q=-1.0 Lsize=    9498kB time=00:00:20.70 bitrate=3757.0kbits/s speed=0.0519x    
video:9493kB audio:0kB subtitle:0kB other streams:0kB global headers:0kB muxing overhead: 0.047928%
bench: utime=1486.408s
bench: maxrss=2799076kB
[libx264 @ 0x335f1c0] frame I:3     Avg QP:32.13  size:104741
[libx264 @ 0x335f1c0] frame P:268   Avg QP:39.21  size: 25146
[libx264 @ 0x335f1c0] frame B:229   Avg QP:39.63  size: 11646
[libx264 @ 0x335f1c0] consecutive B-frames: 36.2%  7.6% 18.0% 17.6% 11.0%  9.6%  0.0%  0.0%  0.0%
[libx264 @ 0x335f1c0] mb I  I16..4: 21.2% 76.6%  2.2%
[libx264 @ 0x335f1c0] mb P  I16..4: 12.1% 30.9%  0.1%  P16..4: 16.9%  0.6%  0.6%  0.0%  0.0%    skip:38.8%
[libx264 @ 0x335f1c0] mb B  I16..4:  0.6%  1.0%  0.0%  B16..8: 25.7%  1.1%  0.1%  direct: 0.2%  skip:71.3%  L0:40.7% L1:58.6% BI: 0.8%
[libx264 @ 0x335f1c0] final ratefactor: 34.58
[libx264 @ 0x335f1c0] 8x8 transform intra:71.6% inter:91.3%
[libx264 @ 0x335f1c0] direct mvs  spatial:99.1% temporal:0.9%
[libx264 @ 0x335f1c0] coded y,uvDC,uvAC intra: 7.7% 11.3% 0.2% inter: 1.2% 1.0% 0.0%
[libx264 @ 0x335f1c0] i16 v,h,dc,p: 26% 31%  7% 36%
[libx264 @ 0x335f1c0] i8 v,h,dc,ddl,ddr,vr,hd,vl,hu: 22% 10% 58%  1%  1%  2%  2%  1%  2%
[libx264 @ 0x335f1c0] i4 v,h,dc,ddl,ddr,vr,hd,vl,hu: 16% 18% 10%  7% 10%  9% 12%  6% 11%
[libx264 @ 0x335f1c0] i8c dc,h,v,p: 88%  8%  4%  1%
[libx264 @ 0x335f1c0] Weighted P-Frames: Y:1.5% UV:1.1%
[libx264 @ 0x335f1c0] ref P L0: 55.9% 10.3% 13.3%  4.4%  3.2%  2.6%  2.5%  1.2%  1.3%  1.1%  1.0%  0.8%  0.7%  0.7%  0.6%  0.4%
[libx264 @ 0x335f1c0] ref B L0: 86.0%  6.1%  2.8%  1.1%  0.9%  0.7%  0.6%  0.4%  0.3%  0.3%  0.2%  0.2%  0.2%  0.2%  0.1%
[libx264 @ 0x335f1c0] ref B L1: 98.3%  1.7%
[libx264 @ 0x335f1c0] kb/s:3732.55
